<svg width="35" height="35" viewBox="0 0 35 35" fill="none" xmlns="http://www.w3.org/2000/svg">
<path d="M28.8446 11.3147V10.239C30.1992 9.44223 31.0757 7.96813 31.0757 6.3745V4.46215C31.0757 1.99203 29.0837 0 26.6135 0C24.1434 0 22.1116 1.99203 22.1116 4.46215V6.3745C22.1116 7.92829 22.9084 9.36255 24.2629 10.1594V11.3147C23.6653 11.4741 23.1076 11.7131 22.5498 12.0319C21.6733 10 19.6414 8.56574 17.2908 8.56574C14.9801 8.56574 13.0279 9.92032 12.1116 11.9123C11.5936 11.6733 11.0757 11.4343 10.5578 11.3147V10.239C11.9123 9.44223 12.7888 7.96813 12.7888 6.3745V4.46215C12.7888 1.99203 10.7968 0 8.32669 0C5.85657 0 3.86454 1.99203 3.86454 4.46215V6.3745C3.86454 7.92829 4.66135 9.36255 6.01594 10.1594V11.3147C2.43028 12.3506 0 15.5777 0 19.3227C0 19.6414 0.278884 19.9203 0.59761 19.9203H12.3904C12.4303 19.9203 12.4701 19.9203 12.51 19.9203C12.988 20.6773 13.6653 21.3147 14.4622 21.7928V23.5857C9.72112 24.8606 6.49402 29.1235 6.49402 34.0637C6.49402 34.3825 6.77291 34.6614 7.09163 34.6614H27.6096C27.9283 34.6614 28.2072 34.3825 28.2072 34.0637C28.2072 29.1633 24.8207 24.8207 20.1195 23.5857V21.8725C20.9562 21.3944 21.6335 20.757 22.1514 19.9602H34.3825C34.7012 19.9602 34.9801 19.6813 34.9801 19.3626C34.9402 15.6175 32.3904 12.3108 28.8446 11.3147ZM1.19522 18.7649C1.43426 15.6574 3.66534 13.1076 6.73307 12.3904C7.01195 12.3108 7.21116 12.0717 7.21116 11.7928V9.8008C7.21116 9.56175 7.09163 9.36255 6.89243 9.28287C5.77689 8.7251 5.05976 7.60956 5.05976 6.3745V4.46215C5.05976 2.66932 6.53386 1.19522 8.32669 1.19522C10.1195 1.19522 11.5936 2.66932 11.5936 4.46215V6.3745C11.5936 7.60956 10.8367 8.76494 9.72112 9.32271C9.52191 9.40239 9.36255 9.64143 9.36255 9.88048V11.7928C9.36255 12.0717 9.56175 12.3108 9.84064 12.3904C10.5179 12.5498 11.1554 12.7888 11.753 13.1076C11.6733 13.506 11.6335 13.9044 11.6335 14.3426V16.8924C11.6335 17.5299 11.753 18.1673 11.9522 18.7649H1.19522ZM19.243 20.9562C19.0438 21.0359 18.8845 21.2749 18.8845 21.5139V24.0637C18.8845 24.3426 19.0837 24.5817 19.3625 24.6614C23.5857 25.5777 26.6932 29.243 26.9721 33.506H7.68924C7.92829 29.243 10.9562 25.6574 15.1793 24.7012C15.4582 24.6215 15.6574 24.3825 15.6574 24.1036V21.4741C15.6574 21.2351 15.5378 21.0359 15.3386 20.9562C13.7849 20.1992 12.8287 18.6454 12.8287 16.9323V14.3825C12.8287 11.8725 14.8606 9.88048 17.3307 9.88048C19.8008 9.88048 21.8327 11.9124 21.8327 14.3825V16.8924C21.8327 18.6056 20.8367 20.1992 19.243 20.9562ZM22.7092 18.7649C22.9084 18.1673 23.0279 17.5299 23.0279 16.8924V14.3426C23.0279 13.9841 22.988 13.5857 22.9084 13.2669C23.5458 12.8685 24.2629 12.5896 24.9801 12.4303C25.259 12.3506 25.4582 12.1116 25.4582 11.8327V9.84064C25.4582 9.60159 25.3386 9.40239 25.1394 9.32271C24.0239 8.76494 23.3068 7.6494 23.3068 6.41434V4.50199C23.3068 2.70916 24.7809 1.23506 26.5737 1.23506C28.3665 1.23506 29.8406 2.70916 29.8406 4.50199V6.41434C29.8406 7.6494 29.0837 8.80478 27.9681 9.36255C27.7689 9.44223 27.6096 9.68127 27.6096 9.92032V11.8327C27.6096 12.1116 27.8088 12.3506 28.0876 12.4303C31.1554 13.1076 33.4263 15.7371 33.7052 18.8048L22.7092 18.7649Z" fill="white"/>
</svg>
