<svg width="36" height="27" viewBox="0 0 36 27" fill="none" xmlns="http://www.w3.org/2000/svg">
<path d="M21.0865 3.91821L15.2316 10.6537C15.0788 10.8296 15.0426 11.0785 15.1391 11.2905C15.2356 11.5029 15.4468 11.6391 15.6799 11.6399L18.9382 11.6486L13.8504 16.6591C13.6161 16.8901 13.6134 17.2669 13.844 17.5015C13.9604 17.6198 14.1144 17.679 14.2685 17.679C14.4193 17.679 14.5702 17.6218 14.6865 17.5079L20.8062 11.4815C20.9781 11.312 21.0309 11.0555 20.9396 10.832C20.8487 10.6084 20.6315 10.4619 20.3897 10.4615L16.9857 10.4524L21.9862 4.69955C22.2018 4.45141 22.1755 4.07504 21.9274 3.85945C21.6793 3.64347 21.3025 3.67007 21.0865 3.91821Z" fill="white"/>
<path d="M33.2486 0H14.2023C12.9267 0 11.8888 1.01995 11.8888 2.27335V7.7471L2.31345 7.75821C1.03782 7.75821 0 8.77816 0 10.0316V20.0187C0 21.2709 1.03782 22.29 2.31345 22.29H4.34978V26.371C4.34978 26.6053 4.48715 26.8177 4.70074 26.9141C4.77896 26.9495 4.86233 26.9665 4.94491 26.9665C5.08784 26.9665 5.22878 26.9153 5.33995 26.8169L10.4528 22.29H20.9485C22.2237 22.29 23.2615 21.2713 23.2615 20.0187V14.5314H25.1089L30.2217 19.0583C30.3968 19.2135 30.6477 19.252 30.8609 19.1555C31.0745 19.0595 31.2119 18.847 31.2119 18.6124V14.5314H33.2478C34.5235 14.5314 35.5613 13.5127 35.5613 12.2604V2.27335C35.5617 1.01995 34.5243 0 33.2486 0ZM34.3706 12.2604C34.3706 12.856 33.8672 13.3403 33.2482 13.3403H30.6168C30.2876 13.3403 30.0212 13.6067 30.0212 13.9359V17.2899L25.7294 13.49C25.6206 13.3935 25.4801 13.3403 25.3348 13.3403H22.666C22.3369 13.3403 22.0705 13.6067 22.0705 13.9359V20.0187C22.0705 20.6142 21.567 21.099 20.9485 21.099H10.2269C10.0816 21.099 9.94104 21.1522 9.83226 21.2486L5.54045 25.0481V21.6945C5.54045 21.3654 5.27404 21.099 4.94491 21.099H2.31305C1.69409 21.099 1.19067 20.6142 1.19067 20.0187V10.032C1.19067 9.43524 1.69409 8.94968 2.31385 8.94968L12.1973 8.93816H12.4844C12.8135 8.93816 13.0799 8.67176 13.0799 8.34263V2.27375C13.0799 1.67702 13.5833 1.19146 14.2023 1.19146H33.2486C33.8676 1.19146 34.371 1.67702 34.371 2.27375L34.3706 12.2604Z" fill="white"/>
</svg>
