<svg width="31" height="30" viewBox="0 0 31 30" fill="none" xmlns="http://www.w3.org/2000/svg">
<circle cx="15.3427" cy="14.8571" r="14.8571" fill="#949494"/>
<path d="M15.3427 20.5714C14.8848 20.5714 10.8352 20.5628 9.67903 20.2505C9.25016 20.1345 8.85911 19.9071 8.54511 19.5909C8.23111 19.2747 8.00521 18.881 7.89008 18.4492C7.57445 17.2649 7.57132 14.9552 7.57132 14.8575C7.57132 14.7599 7.57484 12.4501 7.89008 11.2659C8.00555 10.8342 8.2316 10.4405 8.54562 10.1243C8.85964 9.8081 9.25061 9.58049 9.67942 9.46422C10.8352 9.15192 14.8848 9.14286 15.3427 9.14286C15.8007 9.14286 19.8503 9.15152 21.0069 9.46382C21.4356 9.58001 21.8265 9.80755 22.1405 10.1237C22.4544 10.4398 22.6804 10.8334 22.7958 11.2651V11.2655C23.1107 12.4497 23.1142 14.7591 23.1142 14.8568C23.1142 14.9544 23.1107 17.2642 22.7958 18.4484C22.6804 18.8803 22.4544 19.274 22.1403 19.5903C21.8262 19.9065 21.435 20.134 21.0061 20.2501C19.8503 20.5624 15.8007 20.5714 15.3427 20.5714Z" fill="white"/>
<path d="M14.1252 17.211C14.0215 17.211 13.922 17.1695 13.8487 17.0956C13.7753 17.0218 13.7341 16.9216 13.7341 16.8172V12.8975C13.7339 12.8283 13.7518 12.7602 13.7861 12.7002C13.8203 12.6402 13.8697 12.5904 13.9293 12.5558C13.9888 12.5212 14.0564 12.503 14.1251 12.5031C14.1939 12.5032 14.2614 12.5216 14.3208 12.5565L17.6918 14.5165C17.7512 14.5511 17.8006 14.6008 17.8349 14.6606C17.8692 14.7205 17.8873 14.7884 17.8873 14.8575C17.8873 14.9267 17.8692 14.9946 17.8349 15.0544C17.8006 15.1143 17.7512 15.164 17.6918 15.1986L14.3208 17.1586C14.2612 17.1928 14.1938 17.2109 14.1252 17.211Z" fill="#949494"/>
</svg>
