<svg width="38" height="34" viewBox="0 0 38 34" fill="none" xmlns="http://www.w3.org/2000/svg">
<path d="M33.2427 17.1893C33.1905 17.1518 33.1326 17.1229 33.0713 17.1036C32.9061 13.6218 31.4134 10.3355 28.9 7.92029C29.5367 5.43058 29.5898 3.39392 29.0265 2.00622C28.8833 1.61605 28.6617 1.25938 28.3753 0.95822C28.0889 0.657064 27.7438 0.417819 27.3613 0.25526C25.9981 -0.312066 24.1818 0.067512 21.9615 1.38175C21.8248 1.46601 21.7267 1.60058 21.6884 1.75646C21.65 1.91233 21.6743 2.07705 21.7562 2.21513C21.8381 2.35321 21.971 2.45361 22.1261 2.49469C22.2813 2.53577 22.4465 2.51425 22.5859 2.43477C24.4022 1.35726 25.945 0.985846 26.8919 1.38583C27.1241 1.48755 27.3327 1.63613 27.5048 1.82224C27.6769 2.00836 27.8086 2.22801 27.8919 2.46742C28.3 3.4878 28.2796 5.07141 27.851 7.00604C25.256 4.961 22.0066 3.92802 18.707 4.0992C15.4075 4.27037 12.2824 5.63404 9.91292 7.93661L9.81497 7.91621C5.08044 7.39378 1.79893 8.16518 1.04794 9.97736C0.904908 10.3561 0.841248 10.7603 0.860907 11.1647C0.880566 11.5691 0.983125 11.9652 1.16222 12.3283C1.79485 13.8221 3.43152 15.5159 5.76613 17.2261C5.76613 17.4057 5.76613 17.5812 5.76613 17.7648C5.76472 20.144 6.38822 22.4817 7.57423 24.5442C7.53695 24.6004 7.50936 24.6625 7.4926 24.7278C6.49264 29.0256 6.99058 31.8908 8.90071 32.7888C9.30348 32.9748 9.74278 33.0682 10.1864 33.0622C11.6231 33.0622 13.3454 32.1888 15.1495 30.7399C17.7714 31.6092 20.5955 31.6622 23.2483 30.8918C25.901 30.1215 28.2575 28.5642 30.0061 26.4257L30.3897 26.4666C31.0128 26.5155 31.6006 26.54 32.1529 26.54C35.2589 26.54 37.2017 25.7809 37.818 24.3156C38.5731 22.4545 36.965 19.928 33.2427 17.1893ZM19.4146 5.30814C22.3887 5.30608 25.2643 6.37375 27.5164 8.31619C27.1679 9.50283 26.7467 10.6669 26.2552 11.8018C26.1913 11.9512 26.1894 12.1198 26.2499 12.2706C26.3103 12.4214 26.4282 12.542 26.5776 12.6058C26.727 12.6697 26.8956 12.6716 27.0464 12.6111C27.1972 12.5507 27.3178 12.4328 27.3817 12.2834C27.8334 11.2277 28.2102 10.2236 28.5122 9.27126C30.4966 11.3906 31.6756 14.1383 31.8441 17.0367C32.0126 19.9351 31.1601 22.801 29.4347 25.136C26.8044 24.8079 24.209 24.2437 21.6798 23.4503C22.6308 22.1075 23.5369 20.6913 24.3655 19.2505C24.6716 18.7199 24.9695 18.1771 25.2593 17.6179C25.2971 17.5469 25.3205 17.4691 25.3283 17.389C25.336 17.309 25.3279 17.2282 25.3044 17.1512C25.2809 17.0743 25.2425 17.0027 25.1913 16.9406C25.1401 16.8785 25.0773 16.8271 25.0063 16.7894C24.9352 16.7516 24.8575 16.7281 24.7774 16.7204C24.6973 16.7127 24.6165 16.7208 24.5396 16.7443C24.4626 16.7678 24.3911 16.8062 24.329 16.8574C24.2669 16.9085 24.2155 16.9714 24.1777 17.0424C23.8961 17.573 23.6022 18.1036 23.3043 18.6219C22.4292 20.1439 21.4755 21.6193 20.4472 23.0422C19.4486 22.7129 18.4269 22.3456 17.382 21.9402C13.7379 20.5646 10.2614 18.7805 7.01915 16.622C7.30575 13.5314 8.7351 10.6589 11.0276 8.56649C13.3201 6.47404 16.3108 5.31216 19.4146 5.30814ZM2.27238 11.8385C2.16025 11.6248 2.09233 11.3907 2.0727 11.1502C2.05306 10.9096 2.08211 10.6676 2.1581 10.4386C2.56625 9.47942 4.78658 8.70802 8.86806 9.0427C7.27048 10.9766 6.23801 13.3141 5.8845 15.7976C4.05599 14.3976 2.77849 13.0303 2.27238 11.8508V11.8385ZM16.9331 23.0993C17.8514 23.4585 18.7697 23.7809 19.6799 24.087C18.2566 25.9916 16.6534 27.7547 14.8923 29.3522C12.6088 28.4585 10.6396 26.9112 9.23114 24.9038C7.82272 22.8964 7.03766 20.5182 6.97425 18.0669C10.1096 20.0865 13.4473 21.7731 16.9331 23.0993ZM9.39865 31.6704C8.22319 31.1154 7.89259 28.9971 8.46399 25.9319C9.85807 27.7947 11.7019 29.2734 13.823 30.2297C12.0679 31.5684 10.4762 32.1888 9.39865 31.6786V31.6704ZM19.4146 30.2052C18.3389 30.2078 17.2674 30.0706 16.227 29.797C17.9532 28.1771 19.5259 26.4009 20.9248 24.4911C23.3979 25.2812 25.9314 25.8682 28.5 26.2462C27.3388 27.4947 25.9327 28.4907 24.3696 29.1718C22.8065 29.853 21.1197 30.2047 19.4146 30.2052ZM36.663 23.8381C36.2018 24.9401 34.0631 25.4707 30.8346 25.2625C32.1519 23.2673 32.9192 20.9597 33.059 18.573C35.7732 20.6994 37.1487 22.683 36.663 23.8381Z" fill="black"/>
<path d="M8.88059 15.4178C10.6068 16.5031 12.404 17.4713 14.26 18.3156C14.4051 18.3711 14.566 18.3692 14.7098 18.3105C14.8537 18.2518 14.9698 18.1405 15.0347 17.9993C15.0996 17.8582 15.1084 17.6976 15.0592 17.5502C15.0101 17.4027 14.9068 17.2795 14.7702 17.2055C12.965 16.3849 11.2169 15.444 9.53771 14.3892C9.40088 14.3074 9.23754 14.2822 9.08242 14.319C8.9273 14.3557 8.79263 14.4515 8.70704 14.586C8.62146 14.7205 8.59171 14.8831 8.62412 15.0392C8.65652 15.1953 8.74854 15.3326 8.88059 15.4219V15.4178Z" fill="black"/>
<path d="M19.5127 18.6912C19.6524 18.7731 19.8189 18.7964 19.9757 18.7558C20.1326 18.7153 20.2669 18.6142 20.3494 18.4748C20.6555 17.9606 20.9535 17.4341 21.2432 16.9116C22.5048 14.6285 23.5882 12.2515 24.4839 9.80168C24.5249 9.65253 24.5079 9.49342 24.4363 9.3563C24.3648 9.21919 24.244 9.11424 24.0982 9.06255C23.9524 9.01086 23.7925 9.01625 23.6505 9.07765C23.5086 9.13905 23.3951 9.2519 23.333 9.39353C22.4602 11.7843 21.404 14.104 20.1739 16.3321C19.8923 16.8463 19.5984 17.3606 19.3005 17.8626C19.2207 18.0011 19.1982 18.1653 19.2379 18.3201C19.2776 18.4749 19.3762 18.6081 19.5127 18.6912Z" fill="black"/>
</svg>
