<svg width="31" height="37" viewBox="0 0 31 37" fill="none" xmlns="http://www.w3.org/2000/svg">
<path d="M30.2769 12.7973C29.8444 5.99274 24.3736 0.505657 17.5519 0.0344353C13.6887 -0.233295 10.0115 1.06705 7.19697 3.69449C4.43348 6.27364 2.84864 9.91533 2.84864 13.6855C2.84864 14.2305 2.88056 14.776 2.9436 15.3102L0.154178 20.9745C-0.0708595 21.4317 -0.0485154 21.9656 0.214427 22.4025C0.477769 22.8402 0.940612 23.1099 1.45173 23.1251C2.21183 23.1479 2.74091 23.1634 3.11518 23.1666L3.10959 24.6637C3.10959 29.3468 4.2639 32.058 10.1448 32.0576L12.6932 32.1418V35.4056C12.6932 35.736 12.961 36.0041 13.2917 36.0041C13.6225 36.0041 13.8902 35.736 13.8902 35.4056V31.5628C13.8902 31.2396 13.6341 30.9751 13.3113 30.9647L10.164 30.861C5.61971 30.861 4.3058 29.4712 4.3058 24.6661L4.31418 22.5485C4.31418 22.5075 4.31019 22.4668 4.30181 22.4261C4.24036 22.1252 3.96066 21.9153 3.65622 21.9508C3.62949 21.9532 3.60355 21.958 3.57842 21.9636C3.45433 21.9684 3.01742 21.9732 1.48645 21.9285C1.344 21.9241 1.27059 21.8367 1.23907 21.7849C1.20794 21.7334 1.16565 21.6285 1.22749 21.5032L4.09592 15.6781C4.14819 15.572 4.16774 15.4527 4.15258 15.3354C4.08116 14.7951 4.04485 14.2401 4.04485 13.6855C4.04485 10.2457 5.49124 6.92321 8.01293 4.5695C10.5825 2.17109 13.9433 0.982864 17.4685 1.22865C23.6945 1.65877 28.6868 6.66506 29.0815 12.8735C29.3288 16.761 27.7947 20.4662 24.8732 23.0385C24.7443 23.1522 24.6701 23.3154 24.6701 23.4874L24.6633 35.4052C24.6629 35.7356 24.931 36.0037 25.2614 36.0041C25.5918 36.0041 25.8599 35.7364 25.8603 35.406L25.8683 23.7547C28.9382 20.9446 30.5422 16.9669 30.2769 12.7973Z" fill="#121212"/>
<path d="M19.7177 7.37524C19.7161 7.37524 19.7141 7.37524 19.7125 7.37524C18.4792 7.37524 17.3584 7.96856 16.6729 8.911C15.9826 7.97814 14.8646 7.38961 13.6413 7.38801C13.6397 7.38801 13.6381 7.38801 13.6365 7.38801C12.6238 7.38801 11.6762 7.77824 10.9675 8.48647C10.2777 9.17634 9.89822 10.0889 9.89942 11.0564C9.90061 11.9973 10.2465 12.8711 10.8726 13.5171C12.1737 14.8589 16.1119 18.6211 16.2787 18.7803C16.3944 18.8905 16.5432 18.9459 16.692 18.9459C16.8417 18.9459 16.9909 18.8901 17.1066 18.7787C17.2726 18.6195 21.1836 14.8597 22.4824 13.5267C23.118 12.8743 23.4675 11.9945 23.4659 11.0497C23.4635 9.02672 21.7817 7.37804 19.7177 7.37524ZM22.2693 11.0517C22.2701 11.6821 22.0419 12.2646 21.6257 12.6916C20.5867 13.7581 17.7574 16.4909 16.6916 17.5183C15.6199 16.4921 12.7722 13.7565 11.7328 12.6844C11.3239 12.2622 11.098 11.6837 11.0972 11.0548C11.0964 10.4077 11.3514 9.79639 11.8146 9.33275C12.2966 8.85076 12.9442 8.58502 13.6369 8.58502C13.6377 8.58502 13.6389 8.58502 13.6401 8.58502C14.7908 8.58662 15.8035 9.34312 16.1023 10.4248C16.1741 10.6842 16.4103 10.8641 16.6793 10.8641C16.6801 10.8641 16.6813 10.8641 16.6821 10.8641C16.9526 10.8629 17.1884 10.681 17.2574 10.4196C17.5475 9.33155 18.5566 8.57225 19.7125 8.57225C19.7137 8.57225 19.7149 8.57225 19.7161 8.57225C21.1222 8.57425 22.2673 9.68667 22.2693 11.0517Z" fill="#121212"/>
</svg>
