<svg width="38" height="38" viewBox="0 0 38 38" fill="none" xmlns="http://www.w3.org/2000/svg">
<path d="M-6.10352e-05 19C-6.10352e-05 29.4934 8.50653 38 18.9999 38C29.4933 38 37.9999 29.4934 37.9999 19C37.9999 8.50659 29.4933 0 18.9999 0C8.50653 0 -6.10352e-05 8.50659 -6.10352e-05 19Z" fill="white" fill-opacity="0.7"/>
<path d="M24.7827 18.1739C25.2389 18.1739 25.6087 18.5438 25.6087 19C25.6087 19.4563 25.2389 19.8261 24.7827 19.8261L24.7827 18.1739ZM12.6333 19.5842C12.3107 19.2616 12.3107 18.7385 12.6333 18.4159L17.8905 13.1587C18.2131 12.8361 18.7361 12.8361 19.0588 13.1587C19.3814 13.4813 19.3814 14.0044 19.0588 14.327L14.3857 19L19.0588 23.6731C19.3814 23.9957 19.3814 24.5187 19.0588 24.8413C18.7361 25.164 18.2131 25.164 17.8905 24.8413L12.6333 19.5842ZM24.7827 19.8261L13.2174 19.8261L13.2174 18.1739L24.7827 18.1739L24.7827 19.8261Z" fill="#3A3A3A"/>
</svg>
