<svg width="38" height="38" viewBox="0 0 38 38" fill="none" xmlns="http://www.w3.org/2000/svg">
<circle cx="19" cy="19" r="19" fill="white" fill-opacity="0.7"/>
<path d="M13.2173 18.1739C12.761 18.1739 12.3912 18.5438 12.3912 19C12.3912 19.4563 12.761 19.8261 13.2173 19.8261L13.2173 18.1739ZM25.3666 19.5842C25.6892 19.2616 25.6892 18.7385 25.3666 18.4159L20.1094 13.1587C19.7868 12.8361 19.2638 12.8361 18.9412 13.1587C18.6185 13.4813 18.6185 14.0044 18.9412 14.327L23.6142 19L18.9412 23.6731C18.6185 23.9957 18.6185 24.5187 18.9412 24.8413C19.2638 25.164 19.7868 25.164 20.1094 24.8413L25.3666 19.5842ZM13.2173 19.8261L24.7825 19.8261L24.7825 18.1739L13.2173 18.1739L13.2173 19.8261Z" fill="#3A3A3A"/>
</svg>
