<svg width="100" height="86" viewBox="0 0 100 86" fill="none" xmlns="http://www.w3.org/2000/svg">
<path d="M81.3547 59.0719V78.8625H28.9546V36.0337H33.3242V33.8214H28.9546H26.3392H21.9523V36.0337H26.3146H26.3392V81.4779H83.97V59.0719H81.3547Z" fill="#231F20"/>
<path d="M58.9588 35.7858C58.9723 35.8554 59.0757 36.2618 59.269 37.0051L60.6956 41.9256H55.6707L54.8096 44.0553H61.3117L62.4904 48.087H65.1376L60.8609 34.5043C60.7371 34.049 60.4269 33.8214 59.9301 33.8214H58.9515L58.1571 35.7858H58.9588Z" fill="#121212"/>
<path d="M35.3771 75.731L35.9352 83.2306L29.4403 85.7576H61.5365L67.2964 75.731H35.3771Z" fill="#F15A29"/>
<path d="M35.3771 75.731L29.4403 85.7576L35.9352 83.2306L35.3771 75.731Z" fill="#F7941D"/>
<path d="M49.7412 27.8339L44.4597 40.4584L51.7245 51.6969L54.8139 44.0553L55.675 41.9256L58.157 35.7858L58.9515 33.8214L61.3639 27.8339H49.7412Z" fill="#F15A29"/>
<path d="M44.4597 40.4584L39.1348 52.8306L53.7976 75.731H67.2963L51.7245 51.6969L51.7201 51.7085L44.4597 40.4584Z" fill="#F7941D"/>
<path d="M35.8047 25.7492H81.3547V29.417H83.97V23.1338H26.3392V25.7492H28.9546H35.8047Z" fill="#121212"/>
<path d="M45.9907 45.9994L46.1154 47.9638C44.859 48.074 42.7641 48.1291 39.8307 48.1291C38.8932 48.1291 38.1524 47.8875 37.6082 47.4042C37.0641 46.921 36.7853 46.2594 36.7717 45.4195V36.489C36.7853 35.6491 37.0641 34.9875 37.6082 34.5043C38.1524 34.021 38.8932 33.7794 39.8307 33.7794H47.2549L46.3532 35.9352H40.4092C40.0371 35.9352 39.7718 36.0246 39.6133 36.2034C39.4547 36.3822 39.3755 36.6924 39.3755 37.1341V39.6364H44.8063L43.964 41.6081H39.3755V44.7975C39.3755 45.2392 39.4547 45.5495 39.6133 45.7283C39.7718 45.9071 40.0371 45.9965 40.4092 45.9965L45.9907 45.9994Z" fill="#231F20"/>
<path d="M51.7201 51.7085L51.7245 51.6969L44.4597 40.4584L51.7201 51.7085Z" fill="#F7941D"/>
<path d="M48.5785 17.8074H0L10.0468 27.8339H61.3639L48.5785 17.8074Z" fill="#F7941D"/>
<path d="M18.5903 10.0048L8.31581 0L0 17.7842L10.0468 27.8339L18.5903 10.0048Z" fill="#F15A29"/>
<path d="M77.5461 36.0337H73.1432V48.087H70.5336V36.0337H66.1757V33.8214H77.5476L77.5461 36.0337Z" fill="#231F20"/>
<path d="M81.3778 48.087V33.8214C82.6033 33.6967 84.3276 33.6344 86.5505 33.6344C88.4246 33.6344 89.7096 33.9548 90.4055 34.5956C91.1013 35.2364 91.4493 36.4445 91.4493 38.22C91.4493 39.9984 91.1183 41.2065 90.4562 41.8444C89.7941 42.4823 88.602 42.8027 86.8796 42.8056C85.9054 42.8082 84.9319 42.753 83.9642 42.6403V48.0769L81.3778 48.087ZM83.9627 40.7063H86.4853C87.3948 40.6928 88.0153 40.5169 88.3468 40.1786C88.6783 39.8403 88.8436 39.1889 88.8426 38.2243C88.8426 37.2578 88.6773 36.6064 88.3468 36.2701C88.0163 35.9337 87.3958 35.7651 86.4853 35.7641H83.9627V40.7063Z" fill="#231F20"/>
<path d="M72.1312 59.0965H74.7988C75.4464 59.0965 75.7846 59.4348 75.8136 60.1113L76.3935 73.3636H73.8463L73.3708 61.1856H72.9779L70.5133 70.6757C70.3616 71.2556 70.0035 71.5456 69.439 71.5456H67.4587C66.8788 71.5456 66.5134 71.2556 66.3627 70.6757L63.8604 61.1798H63.5081L63.0529 75.7107H60.5303L61.0681 60.1041C61.0962 59.4275 61.4344 59.0892 62.083 59.0892H64.7708C65.3362 59.0892 65.6876 59.3792 65.8248 59.9591L67.8487 67.7037C67.8757 67.8004 68.0207 68.4484 68.2836 69.6478H68.5938C68.7446 68.8485 68.8896 68.1937 69.0288 67.6834L71.0584 59.9722C71.2082 59.3874 71.5658 59.0955 72.1312 59.0965Z" fill="#231F20"/>
<path d="M100 59.0965V73.3578H97.4166V66.8339H91.7698V73.3578H89.1877V59.0922H91.7698V64.6955H97.4137V59.0965H100Z" fill="#231F20"/>
<path d="M83.97 52.3058H81.3546V54.8531H83.97V52.3058Z" fill="#121212"/>
<path d="M43.9639 41.6095L44.8062 39.6306L44.4597 40.4584L43.9639 41.6095Z" fill="#231F20"/>
</svg>
