<svg width="19" height="18" viewBox="0 0 19 18" fill="none" xmlns="http://www.w3.org/2000/svg">
<path fill-rule="evenodd" clip-rule="evenodd" d="M17.924 0.535986C18.0943 0.67559 18.1745 0.897266 18.1328 1.1135L15.2152 16.2591C15.1781 16.4519 15.0489 16.6143 14.8695 16.694C14.69 16.7737 14.483 16.7605 14.315 16.6587L0.56051 8.32266C0.366647 8.20517 0.255553 7.98845 0.273341 7.76246C0.29113 7.53647 0.434764 7.3398 0.644622 7.25408L17.3168 0.444546C17.5206 0.361282 17.7537 0.396381 17.924 0.535986ZM2.20191 7.91426L14.1999 15.1858L16.7449 1.97435L2.20191 7.91426Z" fill="white"/>
<path fill-rule="evenodd" clip-rule="evenodd" d="M17.9875 0.632771C18.2104 0.877966 18.1924 1.25743 17.9472 1.48034L6.48505 11.9004C6.23986 12.1233 5.86039 12.1053 5.63749 11.8601C5.41458 11.6149 5.43265 11.2354 5.67785 11.0125L17.14 0.592411C17.3852 0.369507 17.7646 0.387577 17.9875 0.632771Z" fill="white"/>
<path fill-rule="evenodd" clip-rule="evenodd" d="M6.08145 10.8568C6.41282 10.8568 6.68145 11.1254 6.68145 11.4568V15.2183L8.78321 13.1165C9.01753 12.8822 9.39743 12.8822 9.63174 13.1165C9.86606 13.3509 9.86606 13.7308 9.63174 13.9651L6.50571 17.0911C6.33411 17.2627 6.07604 17.314 5.85184 17.2212C5.62763 17.1283 5.48145 16.9095 5.48145 16.6668V11.4568C5.48145 11.1254 5.75007 10.8568 6.08145 10.8568Z" fill="white"/>
</svg>
