<svg width="50" height="40" viewBox="0 0 50 40" fill="none" xmlns="http://www.w3.org/2000/svg">
<path d="M37.8797 19.9963C37.1601 20.2039 36.443 20.5668 35.7286 21.0614C35.4594 20.1317 35.3015 18.8486 35.3015 17.1579C35.3015 13.2652 36.2787 10.6168 38.028 8.98357L38.0398 8.97257L38.0512 8.9612C39.9024 7.11761 42.6932 5.7297 46.5275 4.87054L47.3088 4.69546V3.89474V2V1H46.3088C43.4799 1 40.712 1.52796 38.0107 2.57877C35.3955 3.51329 33.0775 4.9807 31.0632 6.97155C29.1621 8.8356 27.6279 11.0894 26.4545 13.7188C25.2622 16.3903 24.6765 19.3741 24.6765 22.6526C24.6765 27.0127 25.8599 30.8275 28.2564 34.0494C30.7033 37.339 34.0471 39 38.1912 39C41.011 39 43.4949 38.1012 45.5959 36.3053C47.9019 34.4336 49 31.7212 49 28.3368C49 26.2179 48.3051 24.2517 46.9612 22.4602C45.6339 20.4013 43.618 19.379 41.0662 19.379C40.0355 19.379 38.971 19.5929 37.8797 19.9963ZM13.8651 19.9963C13.1586 20.2001 12.4546 20.5536 11.7531 21.0344C11.4503 19.9886 11.2868 18.7038 11.2868 17.1579C11.2868 13.2652 12.264 10.6168 14.0133 8.98357L14.0251 8.97257L14.0365 8.9612C15.8877 7.11761 18.6785 5.7297 22.5128 4.87054L23.2941 4.69546V3.89474V2V1H22.2941C19.4652 1 16.6973 1.52795 13.996 2.57877C11.3808 3.51328 9.0628 4.98069 7.04848 6.97155C5.13903 8.84385 3.65603 11.1097 2.59411 13.7536C1.52483 16.4158 1 19.3872 1 22.6526C1 27.0013 2.1207 30.8089 4.39655 34.0297C6.73327 37.3366 10.031 39 14.1765 39C16.9963 39 19.4802 38.1012 21.5812 36.3053C23.8872 34.4336 24.9853 31.7212 24.9853 28.3368C24.9853 26.2179 24.2904 24.2517 22.9465 22.4602C21.6192 20.4013 19.6033 19.379 17.0515 19.379C16.0208 19.379 14.9563 19.5929 13.8651 19.9963Z" stroke="#537C96" stroke-width="2"/>
</svg>
