<svg width="84" height="68" viewBox="0 0 84 68" fill="none" xmlns="http://www.w3.org/2000/svg">
<mask id="path-1-outside-1_23_892" maskUnits="userSpaceOnUse" x="0" y="0" width="84" height="68" fill="black">
<rect fill="white" width="84" height="68"/>
<path d="M82 48.8211C82 45.4526 80.9216 42.3088 78.7647 39.3895C76.8039 36.2456 73.8627 34.6737 69.9412 34.6737C68.3725 34.6737 66.7059 35.0105 64.9412 35.6842C63.3725 36.1333 61.7059 37.1439 59.9412 38.7158C58.7647 36.6947 58.1765 33.4386 58.1765 28.9474C58.1765 21.7614 59.9412 16.4842 63.4706 13.1158C67 9.52281 72.1961 6.94035 79.0588 5.36842V2C74.3529 2 69.7451 2.89825 65.2353 4.69474C60.9216 6.26667 57.098 8.73684 53.7647 12.1053C50.6275 15.2491 48.0784 19.0667 46.1176 23.5579C44.1569 28.0491 43.1765 33.1018 43.1765 38.7158C43.1765 46.1263 45.1373 52.5263 49.0588 57.9158C52.9804 63.3053 58.2745 66 64.9412 66C69.451 66 73.3725 64.5404 76.7059 61.6211C80.2353 58.7017 82 54.4351 82 48.8211ZM40.2353 48.8211C40.2353 45.4526 39.1569 42.3088 37 39.3895C35.0392 36.2456 32.098 34.6737 28.1765 34.6737C26.6078 34.6737 24.9412 35.0105 23.1765 35.6842C21.6078 36.1333 19.9412 37.1439 18.1765 38.7158C17 36.2456 16.4118 32.9895 16.4118 28.9474C16.4118 21.7614 18.1765 16.4842 21.7059 13.1158C25.2353 9.52281 30.4314 6.94035 37.2941 5.36842V2C32.5882 2 27.9804 2.89825 23.4706 4.69474C19.1569 6.26667 15.3333 8.73684 12 12.1053C8.86275 15.2491 6.41176 19.0667 4.64706 23.5579C2.88235 28.0491 2 33.1018 2 38.7158C2 46.1263 3.86274 52.5263 7.58824 57.9158C11.3137 63.3053 16.5098 66 23.1765 66C27.6863 66 31.6078 64.5404 34.9412 61.6211C38.4706 58.7017 40.2353 54.4351 40.2353 48.8211Z"/>
</mask>
<path d="M78.7647 39.3895L77.0677 40.4479L77.1094 40.5146L77.1561 40.5779L78.7647 39.3895ZM64.9412 35.6842L65.4917 37.607L65.5742 37.5833L65.6545 37.5527L64.9412 35.6842ZM59.9412 38.7158L58.2127 39.722L59.444 41.8371L61.2715 40.2092L59.9412 38.7158ZM63.4706 13.1158L64.8514 14.5626L64.8748 14.5403L64.8974 14.5173L63.4706 13.1158ZM79.0588 5.36842L79.5054 7.31793L81.0588 6.96211V5.36842H79.0588ZM79.0588 2H81.0588V0H79.0588V2ZM65.2353 4.69474L65.92 6.57387L65.9479 6.56372L65.9754 6.55275L65.2353 4.69474ZM53.7647 12.1053L55.1804 13.518L55.1863 13.512L53.7647 12.1053ZM46.1176 23.5579L47.9506 24.3581V24.3581L46.1176 23.5579ZM49.0588 57.9158L50.676 56.7391V56.7391L49.0588 57.9158ZM76.7059 61.6211L75.4312 60.0799L75.4094 60.0979L75.3882 60.1165L76.7059 61.6211ZM37 39.3895L35.303 40.4479L35.3447 40.5146L35.3914 40.5779L37 39.3895ZM23.1765 35.6842L23.727 37.607L23.8095 37.5833L23.8898 37.5527L23.1765 35.6842ZM18.1765 38.7158L16.3708 39.5758L17.5167 41.9819L19.5068 40.2092L18.1765 38.7158ZM21.7059 13.1158L23.0867 14.5626L23.1101 14.5403L23.1327 14.5173L21.7059 13.1158ZM37.2941 5.36842L37.7407 7.31793L39.2941 6.96211V5.36842H37.2941ZM37.2941 2H39.2941V0H37.2941V2ZM23.4706 4.69474L24.1553 6.57387L24.1832 6.56372L24.2107 6.55275L23.4706 4.69474ZM12 12.1053L13.4157 13.518L13.4216 13.512L12 12.1053ZM4.64706 23.5579L6.50852 24.2893L6.50852 24.2893L4.64706 23.5579ZM7.58823 57.9158L9.23343 56.7785L7.58823 57.9158ZM34.9412 61.6211L33.6665 60.0799L33.6447 60.0979L33.6235 60.1165L34.9412 61.6211ZM84 48.8211C84 44.9909 82.7635 41.4361 80.3733 38.201L77.1561 40.5779C79.0797 43.1814 80 45.9143 80 48.8211H84ZM80.4617 38.3311C78.1106 34.5614 74.5043 32.6737 69.9412 32.6737V36.6737C73.2212 36.6737 75.4972 37.9298 77.0677 40.4479L80.4617 38.3311ZM69.9412 32.6737C68.0846 32.6737 66.1751 33.0724 64.2279 33.8157L65.6545 37.5527C67.2367 36.9487 68.6605 36.6737 69.9412 36.6737V32.6737ZM64.3907 33.7615C62.4334 34.3219 60.5069 35.5335 58.6109 37.2224L61.2715 40.2092C62.9049 38.7542 64.3117 37.9448 65.4917 37.607L64.3907 33.7615ZM61.6697 37.7096C60.7703 36.1646 60.1765 33.356 60.1765 28.9474H56.1765C56.1765 33.5212 56.7592 37.2249 58.2127 39.722L61.6697 37.7096ZM60.1765 28.9474C60.1765 22.0489 61.8722 17.4059 64.8514 14.5626L62.0898 11.669C58.0101 15.5625 56.1765 21.4739 56.1765 28.9474H60.1765ZM64.8974 14.5173C68.0725 11.285 72.8728 8.83714 79.5054 7.31793L78.6123 3.41891C71.5193 5.04357 65.9275 7.76062 62.0438 11.7143L64.8974 14.5173ZM81.0588 5.36842V2H77.0588V5.36842H81.0588ZM79.0588 0C74.0914 0 69.2329 0.949453 64.4951 2.83674L65.9754 6.55275C70.2573 4.84704 74.6145 4 79.0588 4V0ZM64.5505 2.81562C59.9503 4.49195 55.8773 7.12708 52.3431 10.6985L55.1863 13.512C58.3188 10.3466 61.8928 8.04138 65.92 6.57387L64.5505 2.81562ZM52.349 10.6925C49.0184 14.0301 46.3349 18.0617 44.2847 22.7577L47.9506 24.3581C49.822 20.0716 52.2365 16.4681 55.1804 13.518L52.349 10.6925ZM44.2847 22.7577C42.1988 27.5355 41.1765 32.8663 41.1765 38.7158H45.1765C45.1765 33.3373 46.1149 28.5628 47.9506 24.3581L44.2847 22.7577ZM41.1765 38.7158C41.1765 46.4996 43.2436 53.3231 47.4416 59.0925L50.676 56.7391C47.0309 51.7295 45.1765 45.7531 45.1765 38.7158H41.1765ZM47.4416 59.0925C51.7397 64.9994 57.635 68 64.9412 68V64C58.9141 64 54.2211 61.6111 50.676 56.7391L47.4416 59.0925ZM64.9412 68C69.9262 68 74.3185 66.3705 78.0236 63.1256L75.3882 60.1165C72.4266 62.7102 68.9757 64 64.9412 64V68ZM77.9806 63.1622C82.0721 59.7779 84 54.8836 84 48.8211H80C80 53.9866 78.3984 57.6256 75.4312 60.0799L77.9806 63.1622ZM42.2353 48.8211C42.2353 44.9909 40.9988 41.4361 38.6086 38.201L35.3914 40.5779C37.3149 43.1814 38.2353 45.9143 38.2353 48.8211H42.2353ZM38.697 38.3311C36.3459 34.5614 32.7396 32.6737 28.1765 32.6737V36.6737C31.4565 36.6737 33.7325 37.9298 35.303 40.4479L38.697 38.3311ZM28.1765 32.6737C26.3199 32.6737 24.4104 33.0724 22.4632 33.8157L23.8898 37.5527C25.472 36.9487 26.8958 36.6737 28.1765 36.6737V32.6737ZM22.626 33.7615C20.6687 34.3219 18.7421 35.5335 16.8462 37.2224L19.5068 40.2092C21.1402 38.7542 22.547 37.9448 23.727 37.607L22.626 33.7615ZM19.9821 37.8558C18.9798 35.7513 18.4118 32.8223 18.4118 28.9474H14.4118C14.4118 33.1566 15.0202 36.7399 16.3708 39.5758L19.9821 37.8558ZM18.4118 28.9474C18.4118 22.0489 20.1075 17.4059 23.0867 14.5626L20.3251 11.669C16.2454 15.5625 14.4118 21.4739 14.4118 28.9474H18.4118ZM23.1327 14.5173C26.3078 11.285 31.1081 8.83714 37.7407 7.31793L36.8476 3.41891C29.7546 5.04357 24.1628 7.76062 20.2791 11.7143L23.1327 14.5173ZM39.2941 5.36842V2H35.2941V5.36842H39.2941ZM37.2941 0C32.3267 0 27.4682 0.949453 22.7304 2.83674L24.2107 6.55275C28.4926 4.84704 32.8498 4 37.2941 4V0ZM22.7858 2.81562C18.1856 4.49195 14.1126 7.12708 10.5784 10.6985L13.4216 13.512C16.5541 10.3466 20.1281 8.04138 24.1553 6.57387L22.7858 2.81562ZM10.5843 10.6925C7.23708 14.0468 4.64184 18.1023 2.7856 22.8265L6.50852 24.2893C8.18169 20.031 10.4884 16.4514 13.4157 13.518L10.5843 10.6925ZM2.7856 22.8265C0.915683 27.5855 0 32.8917 0 38.7158H4C4 33.3118 4.84902 28.5128 6.50852 24.2893L2.7856 22.8265ZM0 38.7158C0 46.4774 1.95697 53.2866 5.94304 59.053L9.23343 56.7785C5.76852 51.766 4 45.7752 4 38.7158H0ZM5.94304 59.053C10.0498 64.994 15.8668 68 23.1765 68V64C17.1528 64 12.5777 61.6165 9.23343 56.7785L5.94304 59.053ZM23.1765 68C28.1615 68 32.5538 66.3705 36.2589 63.1256L33.6235 60.1165C30.6619 62.7102 27.211 64 23.1765 64V68ZM36.2159 63.1622C40.3074 59.7779 42.2353 54.8836 42.2353 48.8211H38.2353C38.2353 53.9866 36.6337 57.6256 33.6665 60.0799L36.2159 63.1622Z" fill="#EF5B34" fill-opacity="0.15" mask="url(#path-1-outside-1_23_892)"/>
</svg>
