<svg width="122" height="95" viewBox="0 0 122 95" fill="none" xmlns="http://www.w3.org/2000/svg">
<path d="M122 69.5C122 64.5 120.355 59.8333 117.066 55.5C114.076 50.8333 109.591 48.5 103.61 48.5C101.218 48.5 98.6765 49 95.9853 50C93.5931 50.6667 91.0515 52.1667 88.3603 54.5C86.5662 51.5 85.6691 46.6667 85.6691 40C85.6691 29.3333 88.3603 21.5 93.7426 16.5C99.125 11.1667 107.049 7.33334 117.515 5V0C110.338 0 103.311 1.33334 96.4338 4.00001C89.8554 6.33333 84.0245 9.99999 78.9412 15C74.1569 19.6667 70.2696 25.3333 67.2794 32C64.2892 38.6667 62.7941 46.1667 62.7941 54.5C62.7941 65.5 65.7843 75 71.7647 83C77.7451 91 85.8186 95 95.9853 95C102.863 95 108.843 92.8333 113.926 88.5C119.309 84.1667 122 77.8333 122 69.5ZM58.3088 69.5C58.3088 64.5 56.6642 59.8333 53.375 55.5C50.3848 50.8333 45.8995 48.5 39.9191 48.5C37.527 48.5 34.9853 49 32.2941 50C29.902 50.6667 27.3603 52.1667 24.6691 54.5C22.875 50.8333 21.9779 46 21.9779 40C21.9779 29.3333 24.6691 21.5 30.0515 16.5C35.4338 11.1667 43.3578 7.33334 53.8235 5V0C46.6471 0 39.6201 1.33334 32.7426 4.00001C26.1642 6.33333 20.3333 9.99999 15.25 15C10.4657 19.6667 6.72794 25.3333 4.03676 32C1.34559 38.6667 0 46.1667 0 54.5C0 65.5 2.84069 75 8.52206 83C14.2034 91 22.1275 95 32.2941 95C39.1716 95 45.152 92.8333 50.2353 88.5C55.6176 84.1667 58.3088 77.8333 58.3088 69.5Z" fill="white" fill-opacity="0.15"/>
</svg>
